<?xml version="1.0" standalone="no"?>
<!DOCTYPE svg PUBLIC "-//W3C//DTD SVG 20010904//EN"
 "http://www.w3.org/TR/2001/REC-SVG-20010904/DTD/svg10.dtd">
<svg version="1.0" xmlns="http://www.w3.org/2000/svg"
 width="447.000000pt" height="447.000000pt" viewBox="0 0 447.000000 447.000000"
 preserveAspectRatio="xMidYMid meet">

<g transform="translate(0.000000,447.000000) scale(0.100000,-0.100000)"
fill="#000000" stroke="none">
<path d="M2045 4233 c-285 -33 -548 -112 -755 -225 -541 -296 -898 -777 -1027
-1383 -25 -122 -27 -146 -28 -380 0 -256 5 -313 46 -480 98 -399 323 -773 622
-1036 308 -269 695 -442 1101 -490 163 -19 473 -6 626 26 1101 231 1793 1280
1569 2380 -61 298 -210 612 -406 855 -72 89 -243 257 -328 321 -293 224 -646
367 -1010 409 -84 9 -342 12 -410 3z m473 -1375 c9 -9 12 -176 12 -690 l0
-678 -24 -15 c-21 -14 -55 -16 -225 -13 -147 2 -203 6 -213 16 -10 10 -14 110
-16 462 l-3 450 -146 0 c-122 0 -149 3 -165 17 -16 15 -18 35 -18 221 0 177 2
208 17 224 15 17 41 18 393 18 279 0 379 -3 388 -12z"/>
</g>
</svg>
