<svg width="18" height="18" viewBox="0 0 18 18" fill="none" xmlns="http://www.w3.org/2000/svg">
<path d="M17.4376 8.10938H3.72435L11.9322 0.984375C12.0634 0.869531 11.9837 0.65625 11.8103 0.65625H9.73607C9.64466 0.65625 9.55794 0.689062 9.48997 0.747656L0.632941 8.43281C0.551821 8.50313 0.486763 8.59006 0.442175 8.68772C0.397588 8.78537 0.374512 8.89147 0.374512 8.99883C0.374512 9.10618 0.397588 9.21228 0.442175 9.30994C0.486763 9.4076 0.551821 9.49453 0.632941 9.56484L9.54153 17.2969C9.57669 17.3273 9.61888 17.3438 9.66341 17.3438H11.8079C11.9814 17.3438 12.0611 17.1281 11.9298 17.0156L3.72435 9.89062H17.4376C17.5408 9.89062 17.6251 9.80625 17.6251 9.70312V8.29688C17.6251 8.19375 17.5408 8.10938 17.4376 8.10938Z" fill="#4E61A5"/>
</svg>
