<svg width="163" height="68" viewBox="0 0 163 68" fill="none" xmlns="http://www.w3.org/2000/svg">
<path d="M86.256 51.672C81.936 51.672 78.64 50.408 76.368 47.88C74.096 45.32 72.96 41.88 72.96 37.56C72.96 34.712 73.44 32.248 74.4 30.168C75.392 28.056 76.864 26.424 78.816 25.272C80.8 24.088 83.28 23.496 86.256 23.496C90.576 23.496 93.856 24.776 96.096 27.336C98.368 29.864 99.504 33.272 99.504 37.56C99.504 40.344 98.992 42.808 97.968 44.952C96.976 47.064 95.488 48.712 93.504 49.896C91.552 51.08 89.136 51.672 86.256 51.672ZM86.208 47.832C89.312 47.832 91.648 46.872 93.216 44.952C94.784 43.032 95.568 40.568 95.568 37.56C95.568 34.552 94.784 32.088 93.216 30.168C91.68 28.216 89.344 27.24 86.208 27.24C83.136 27.24 80.8 28.168 79.2 30.024C77.632 31.88 76.848 34.392 76.848 37.56C76.848 39.544 77.184 41.32 77.856 42.888C78.528 44.424 79.552 45.64 80.928 46.536C82.336 47.4 84.096 47.832 86.208 47.832ZM111.043 51.48C109.571 51.48 108.179 51.16 106.867 50.52C105.587 49.88 104.547 49.032 103.747 47.976C102.979 46.888 102.595 45.72 102.595 44.472H106.339C106.339 44.536 106.355 44.776 106.387 45.192C106.419 45.608 106.563 46.072 106.819 46.584C107.075 47.096 107.523 47.544 108.163 47.928C108.835 48.312 109.779 48.504 110.995 48.504C112.339 48.504 113.427 48.264 114.259 47.784C115.091 47.304 115.507 46.632 115.507 45.768C115.507 44.968 115.203 44.344 114.595 43.896C113.987 43.448 113.203 43.096 112.243 42.84C111.283 42.552 110.259 42.28 109.171 42.024C108.115 41.768 107.107 41.432 106.147 41.016C105.219 40.568 104.451 39.976 103.843 39.24C103.267 38.472 102.995 37.448 103.027 36.168C103.027 34.44 103.747 33.112 105.187 32.184C106.659 31.224 108.515 30.744 110.755 30.744C112.195 30.744 113.571 30.984 114.883 31.464C116.195 31.912 117.267 32.648 118.099 33.672C118.963 34.696 119.379 36.072 119.347 37.8H115.651C115.683 36.712 115.427 35.896 114.883 35.352C114.371 34.776 113.731 34.392 112.963 34.2C112.195 33.976 111.475 33.864 110.803 33.864C109.523 33.864 108.515 34.104 107.779 34.584C107.043 35.032 106.675 35.64 106.675 36.408C106.675 37.24 106.979 37.88 107.587 38.328C108.195 38.744 108.979 39.096 109.939 39.384C110.899 39.64 111.907 39.896 112.963 40.152C114.051 40.408 115.075 40.744 116.035 41.16C116.995 41.576 117.779 42.168 118.387 42.936C119.027 43.704 119.347 44.728 119.347 46.008C119.347 47.896 118.563 49.288 116.995 50.184C115.427 51.048 113.443 51.48 111.043 51.48ZM130.356 51.48C128.884 51.48 127.492 51.16 126.18 50.52C124.9 49.88 123.86 49.032 123.06 47.976C122.292 46.888 121.908 45.72 121.908 44.472H125.652C125.652 44.536 125.668 44.776 125.7 45.192C125.732 45.608 125.876 46.072 126.132 46.584C126.388 47.096 126.836 47.544 127.476 47.928C128.148 48.312 129.092 48.504 130.308 48.504C131.652 48.504 132.74 48.264 133.572 47.784C134.404 47.304 134.82 46.632 134.82 45.768C134.82 44.968 134.516 44.344 133.908 43.896C133.3 43.448 132.516 43.096 131.556 42.84C130.596 42.552 129.572 42.28 128.484 42.024C127.428 41.768 126.42 41.432 125.46 41.016C124.532 40.568 123.764 39.976 123.156 39.24C122.58 38.472 122.308 37.448 122.34 36.168C122.34 34.44 123.06 33.112 124.5 32.184C125.972 31.224 127.828 30.744 130.068 30.744C131.508 30.744 132.884 30.984 134.196 31.464C135.508 31.912 136.58 32.648 137.412 33.672C138.276 34.696 138.692 36.072 138.66 37.8H134.964C134.996 36.712 134.74 35.896 134.196 35.352C133.684 34.776 133.044 34.392 132.276 34.2C131.508 33.976 130.788 33.864 130.116 33.864C128.836 33.864 127.828 34.104 127.092 34.584C126.356 35.032 125.988 35.64 125.988 36.408C125.988 37.24 126.292 37.88 126.9 38.328C127.508 38.744 128.292 39.096 129.252 39.384C130.212 39.64 131.22 39.896 132.276 40.152C133.364 40.408 134.388 40.744 135.348 41.16C136.308 41.576 137.092 42.168 137.7 42.936C138.34 43.704 138.66 44.728 138.66 46.008C138.66 47.896 137.876 49.288 136.308 50.184C134.74 51.048 132.756 51.48 130.356 51.48ZM151.052 51.48C147.788 51.48 145.356 50.536 143.756 48.648C142.156 46.76 141.356 44.36 141.356 41.448C141.324 38.504 142.124 36.088 143.756 34.2C145.388 32.312 147.82 31.352 151.052 31.32C154.188 31.32 156.572 32.248 158.204 34.104C159.836 35.96 160.652 38.408 160.652 41.448C160.652 43.336 160.3 45.048 159.596 46.584C158.924 48.088 157.868 49.288 156.428 50.184C155.02 51.048 153.228 51.48 151.052 51.48ZM151.052 48.072C152.588 48.072 153.756 47.736 154.556 47.064C155.388 46.392 155.964 45.544 156.284 44.52C156.604 43.464 156.764 42.392 156.764 41.304C156.764 40.216 156.604 39.16 156.284 38.136C155.964 37.08 155.388 36.216 154.556 35.544C153.756 34.84 152.588 34.488 151.052 34.488C149.484 34.488 148.284 34.84 147.452 35.544C146.62 36.216 146.044 37.08 145.724 38.136C145.404 39.16 145.244 40.216 145.244 41.304C145.244 42.392 145.404 43.464 145.724 44.52C146.044 45.544 146.62 46.392 147.452 47.064C148.284 47.736 149.484 48.072 151.052 48.072Z" fill="white"/>
<path d="M47.4999 23.9938C47.4999 23.9938 15.4999 11.5 15.4999 21.9938C15.4999 32.4876 47 39 47 50.4514C47 61.9027 15.4999 48.4514 15.4999 48.4514" stroke="white" stroke-width="3" stroke-linecap="round"/>
<path fill-rule="evenodd" clip-rule="evenodd" d="M47.5 11C40.5964 11 35 16.5964 35 23.5C35 30.4036 40.5964 36 47.5 36C54.4036 36 60 30.4036 60 23.5C60 16.5964 54.4036 11 47.5 11ZM47.25 17.25C43.9363 17.25 41.25 19.9363 41.25 23.25V23.75C41.25 27.0637 43.9363 29.75 47.25 29.75H47.75C51.0637 29.75 53.75 27.0637 53.75 23.75V23.25C53.75 19.9363 51.0637 17.25 47.75 17.25H47.25Z" fill="#FFCD83"/>
<path fill-rule="evenodd" clip-rule="evenodd" d="M15.5 61C22.4036 61 28 55.4036 28 48.5C28 41.5964 22.4036 36 15.5 36C8.59644 36 3 41.5964 3 48.5C3 55.4036 8.59644 61 15.5 61ZM15.75 54.75C19.0637 54.75 21.75 52.0637 21.75 48.75V48.25C21.75 44.9363 19.0637 42.25 15.75 42.25H15.25C11.9363 42.25 9.25 44.9363 9.25 48.25V48.75C9.25 52.0637 11.9363 54.75 15.25 54.75H15.75Z" fill="#FFCD83"/>
</svg>
