<svg width="14" height="14" viewBox="0 0 14 14" fill="none" xmlns="http://www.w3.org/2000/svg">
<path d="M11.8785 9.93594C11.4874 9.54453 11.0305 9.22506 10.5285 8.99219C11.2363 8.41875 11.6879 7.54375 11.6879 6.5625C11.6879 4.83125 10.2442 3.41094 8.51291 3.4375C6.80822 3.46406 5.43478 4.85313 5.43478 6.5625C5.43478 7.54375 5.88791 8.41875 6.59416 8.99219C6.09213 9.22489 5.63512 9.54438 5.24416 9.93594C4.39103 10.7906 3.90666 11.9187 3.87541 13.1219C3.87499 13.1386 3.87791 13.1551 3.88401 13.1707C3.8901 13.1862 3.89924 13.2004 3.91089 13.2123C3.92254 13.2242 3.93646 13.2337 3.95184 13.2402C3.96721 13.2467 3.98372 13.25 4.00041 13.25H4.87541C4.94259 13.25 4.99884 13.1969 5.00041 13.1297C5.03009 12.2234 5.39728 11.375 6.04259 10.7312C6.37281 10.3993 6.76559 10.1361 7.1982 9.95693C7.63082 9.77777 8.09467 9.6862 8.56291 9.6875C9.51447 9.6875 10.4098 10.0578 11.0832 10.7312C11.727 11.375 12.0942 12.2234 12.1254 13.1297C12.127 13.1969 12.1832 13.25 12.2504 13.25H13.1254C13.1421 13.25 13.1586 13.2467 13.174 13.2402C13.1893 13.2337 13.2033 13.2242 13.2149 13.2123C13.2266 13.2004 13.2357 13.1862 13.2418 13.1707C13.2479 13.1551 13.2508 13.1386 13.2504 13.1219C13.2192 11.9187 12.7348 10.7906 11.8785 9.93594ZM8.56291 8.5625C8.02853 8.5625 7.52541 8.35469 7.14884 7.97656C6.95986 7.78907 6.81059 7.56544 6.70992 7.319C6.60925 7.07256 6.55925 6.80837 6.56291 6.54219C6.56759 6.02969 6.77228 5.53438 7.13009 5.16719C7.50509 4.78281 8.00666 4.56875 8.54259 4.5625C9.07228 4.55781 9.58634 4.76406 9.96447 5.13438C10.352 5.51406 10.5645 6.02188 10.5645 6.5625C10.5645 7.09688 10.3567 7.59844 9.97853 7.97656C9.79302 8.16296 9.57239 8.31072 9.3294 8.4113C9.08641 8.51187 8.82589 8.56327 8.56291 8.5625ZM4.64884 6.975C4.63478 6.83906 4.62697 6.70156 4.62697 6.5625C4.62697 6.31406 4.65041 6.07188 4.69416 5.83594C4.70509 5.77969 4.67541 5.72188 4.62384 5.69844C4.41134 5.60313 4.21603 5.47188 4.04728 5.30625C3.84844 5.11345 3.69197 4.88132 3.58785 4.62466C3.48374 4.36801 3.43426 4.09247 3.44259 3.81563C3.45666 3.31406 3.65822 2.8375 4.00978 2.47813C4.39572 2.08281 4.91447 1.86719 5.46603 1.87344C5.96447 1.87813 6.44572 2.07031 6.80978 2.41094C6.93322 2.52656 7.03947 2.65469 7.12853 2.79219C7.15978 2.84063 7.22072 2.86094 7.27384 2.84219C7.54884 2.74688 7.83947 2.67969 8.13791 2.64844C8.22541 2.63906 8.27541 2.54531 8.23634 2.46719C7.72853 1.4625 6.69103 0.76875 5.49103 0.75C3.75822 0.723438 2.31447 2.14375 2.31447 3.87344C2.31447 4.85469 2.76603 5.72969 3.47384 6.30313C2.97697 6.53281 2.51916 6.85 2.12228 7.24688C1.26603 8.10156 0.781655 9.22969 0.750405 10.4344C0.749988 10.4511 0.752913 10.4676 0.759008 10.4832C0.765103 10.4987 0.774244 10.5129 0.785893 10.5248C0.797543 10.5367 0.811464 10.5462 0.826837 10.5527C0.84221 10.5592 0.858724 10.5625 0.875405 10.5625H1.75197C1.81916 10.5625 1.87541 10.5094 1.87697 10.4422C1.90666 9.53594 2.27384 8.6875 2.91916 8.04375C3.37853 7.58438 3.94103 7.26562 4.55509 7.11094C4.61603 7.09531 4.65666 7.0375 4.64884 6.975Z" fill="#4E61A5"/>
</svg>
