<svg width="40" height="40" viewBox="0 0 40 40" fill="none" xmlns="http://www.w3.org/2000/svg">
<path fill-rule="evenodd" clip-rule="evenodd" d="M20 0C8.9543 0 0 8.9543 0 20C0 31.0457 8.9543 40 20 40C31.0457 40 40 31.0457 40 20C40 8.9543 31.0457 0 20 0ZM19.6 10C14.2981 10 10 14.2981 10 19.6V20.4C10 25.7019 14.2981 30 19.6 30H20.4C25.7019 30 30 25.7019 30 20.4V19.6C30 14.2981 25.7019 10 20.4 10H19.6Z" fill="url(#paint0_angular)"/>
<defs>
<radialGradient id="paint0_angular" cx="0" cy="0" r="1" gradientUnits="userSpaceOnUse" gradientTransform="translate(20 20) rotate(90) scale(20)">
<stop stop-color="#FFCD83"/>
<stop offset="1" stop-color="#FFCD83" stop-opacity="0"/>
</radialGradient>
</defs>
</svg>
