<svg viewBox="0 0 32 32" fill="none" xmlns="http://www.w3.org/2000/svg">
<path d="M23.75 9.9969C23.75 9.9969 7.74997 3.75001 7.74997 8.99689C7.74997 14.2438 23.5 17.5 23.5 23.2257C23.5 28.9514 7.74997 22.2257 7.74997 22.2257" stroke="white" stroke-width="1.5" stroke-linecap="round"/>
<path fill-rule="evenodd" clip-rule="evenodd" d="M23.75 3.5C20.2982 3.5 17.5 6.29822 17.5 9.75C17.5 13.2018 20.2982 16 23.75 16C27.2018 16 30 13.2018 30 9.75C30 6.29822 27.2018 3.5 23.75 3.5ZM23.625 6.625C21.9681 6.625 20.625 7.96815 20.625 9.625V9.875C20.625 11.5319 21.9681 12.875 23.625 12.875H23.875C25.5319 12.875 26.875 11.5319 26.875 9.875V9.625C26.875 7.96815 25.5319 6.625 23.875 6.625H23.625Z" fill="#FFCD83"/>
<path fill-rule="evenodd" clip-rule="evenodd" d="M7.75 28.5C11.2018 28.5 14 25.7018 14 22.25C14 18.7982 11.2018 16 7.75 16C4.29822 16 1.5 18.7982 1.5 22.25C1.5 25.7018 4.29822 28.5 7.75 28.5ZM7.875 25.375C9.53185 25.375 10.875 24.0319 10.875 22.375V22.125C10.875 20.4681 9.53185 19.125 7.875 19.125H7.625C5.96815 19.125 4.625 20.4681 4.625 22.125V22.375C4.625 24.0319 5.96815 25.375 7.625 25.375H7.875Z" fill="#FFCD83"/>
</svg>
