<svg width="40" height="40" viewBox="0 0 40 40" fill="none" xmlns="http://www.w3.org/2000/svg">
<path d="M29.6875 12.4961C29.6875 12.4961 9.68747 4.68745 9.68747 11.2461C9.68747 17.8047 29.375 21.875 29.375 29.0321C29.375 36.1892 9.68747 27.7821 9.68747 27.7821" stroke="#4E61A5" stroke-width="1.875" stroke-linecap="round"/>
<path fill-rule="evenodd" clip-rule="evenodd" d="M29.6875 4.375C25.3728 4.375 21.875 7.87278 21.875 12.1875C21.875 16.5022 25.3728 20 29.6875 20C34.0022 20 37.5 16.5022 37.5 12.1875C37.5 7.87278 34.0022 4.375 29.6875 4.375ZM29.5312 8.28125C27.4602 8.28125 25.7812 9.96018 25.7812 12.0312V12.3438C25.7812 14.4148 27.4602 16.0938 29.5312 16.0938H29.8438C31.9148 16.0938 33.5938 14.4148 33.5938 12.3438V12.0312C33.5938 9.96018 31.9148 8.28125 29.8438 8.28125H29.5312Z" fill="#FFCD83"/>
<path fill-rule="evenodd" clip-rule="evenodd" d="M9.6875 35.625C14.0022 35.625 17.5 32.1272 17.5 27.8125C17.5 23.4978 14.0022 20 9.6875 20C5.37278 20 1.875 23.4978 1.875 27.8125C1.875 32.1272 5.37278 35.625 9.6875 35.625ZM9.84375 31.7188C11.9148 31.7188 13.5938 30.0398 13.5938 27.9688V27.6562C13.5938 25.5852 11.9148 23.9062 9.84375 23.9062H9.53125C7.46018 23.9062 5.78125 25.5852 5.78125 27.6562V27.9688C5.78125 30.0398 7.46018 31.7188 9.53125 31.7188H9.84375Z" fill="#FFCD83"/>
</svg>
