<svg width="56" height="19" viewBox="0 0 56 19" fill="none" xmlns="http://www.w3.org/2000/svg">
<path d="M7.042 4.7677C3.15 4.7677 0 7.94142 0 11.8627C0 15.784 3.15 18.9578 7.042 18.9578C10.934 18.9578 14.084 15.784 14.084 11.8627C14.084 7.94142 10.934 4.7677 7.042 4.7677ZM7.042 15.4173C5.096 15.4173 3.514 13.8234 3.514 11.8627C3.514 9.90207 5.096 8.30816 7.042 8.30816C8.988 8.30816 10.57 9.90207 10.57 11.8627C10.57 13.8234 8.988 15.4173 7.042 15.4173Z" fill="#007DC1"/>
<path d="M19.418 14.2465C19.418 13.6823 20.09 13.4143 20.482 13.8092C22.246 15.6147 25.158 18.7179 25.172 18.732C25.214 18.7743 25.256 18.8448 25.424 18.9013C25.494 18.9295 25.606 18.9295 25.732 18.9295H28.91C29.484 18.9295 29.652 18.2665 29.386 17.928L24.122 12.4974L23.842 12.2153C23.24 11.4959 23.31 11.2138 23.996 10.4803L28.168 5.78322C28.434 5.44469 28.266 4.79584 27.678 4.79584H24.794C24.682 4.79584 24.598 4.79584 24.514 4.82405C24.346 4.88048 24.276 4.9369 24.234 4.99332C24.22 5.00742 21.91 7.51819 20.482 9.05568C20.09 9.47884 19.39 9.19673 19.39 8.61841V0.564217C19.39 0.15516 19.054 0 18.788 0H16.436C16.03 0 15.834 0.268003 15.834 0.507795V18.3653C15.834 18.7743 16.17 18.8872 16.45 18.8872H18.802C19.166 18.8872 19.404 18.6192 19.404 18.3512V18.1678V14.2465H19.418Z" fill="#007DC1"/>
<path d="M38.6259 18.2806L38.3739 15.9109C38.3459 15.5865 38.0379 15.3608 37.7159 15.4172C37.5339 15.4454 37.3519 15.4595 37.1699 15.4595C35.2939 15.4595 33.7679 13.9785 33.6559 12.1025C33.6559 12.046 33.6559 11.9755 33.6559 11.905V8.99926C33.6559 8.61841 33.9359 8.30809 34.3139 8.30809H37.4639C37.6879 8.30809 38.0239 8.11062 38.0239 7.70156V5.4588C38.0239 5.02153 37.7439 4.79584 37.4919 4.79584H34.3139C33.9499 4.79584 33.6559 4.52784 33.6419 4.1611V0.564217C33.6419 0.33853 33.4739 0 33.0399 0H30.7019C30.4079 0 30.1279 0.18337 30.1279 0.550111C30.1279 0.550111 30.1279 12.046 30.1279 12.1025C30.2259 15.9391 33.3479 19 37.1699 19C37.4919 19 37.7999 18.9718 38.1079 18.9295C38.4439 18.8872 38.6679 18.605 38.6259 18.2806Z" fill="#007DC1"/>
<path d="M55.5942 15.3044C53.6062 15.3044 53.2982 14.585 53.2982 11.8909C53.2982 11.8768 53.2982 11.8768 53.2982 11.8627V5.38828C53.2982 5.1626 53.1302 4.78175 52.6822 4.78175H50.3302C50.0362 4.78175 49.7142 5.02154 49.7142 5.38828V5.6845C48.6922 5.09207 47.5022 4.75354 46.2422 4.75354C42.3502 4.75354 39.2002 7.92726 39.2002 11.8486C39.2002 15.7699 42.3502 18.9436 46.2422 18.9436C47.9922 18.9436 49.5882 18.2947 50.8202 17.2368C51.4782 18.2524 52.5422 18.9295 54.2082 18.9436C54.4882 18.9436 56.0002 19 56.0002 18.2806V15.7558C56.0002 15.5442 55.8322 15.3044 55.5942 15.3044ZM46.2562 15.4172C44.3102 15.4172 42.7282 13.8233 42.7282 11.8627C42.7282 9.90202 44.3102 8.30811 46.2562 8.30811C48.2022 8.30811 49.7842 9.90202 49.7842 11.8627C49.7702 13.8233 48.1882 15.4172 46.2562 15.4172Z" fill="#007DC1"/>
</svg>
